<svg width="99" height="26" viewBox="0 0 99 26" fill="none" xmlns="http://www.w3.org/2000/svg">
<path d="M86.2824 0.161177C84.2392 0.185842 79.8464 0.521608 77.3894 2.7757C75.5618 4.5866 74.9237 7.26398 74.8489 10.5747C74.7868 13.8735 74.712 20.0684 80.6834 21.7552V24.3244C80.6834 24.3244 80.646 25.3524 81.3255 25.5632C82.1626 25.8282 82.6391 25.0373 83.4348 24.1875L84.9187 22.5095C89.0044 22.8493 92.1337 22.0663 92.4941 21.9502C93.3232 21.6852 97.9929 21.0885 98.7559 14.8927C99.5388 8.49406 98.3748 4.46248 96.2735 2.63884H96.2607C95.6266 2.05483 93.0781 0.197777 87.3844 0.17709C87.3844 0.17709 86.9619 0.149242 86.2824 0.161177ZM86.3525 1.96015C86.9325 1.95617 87.285 1.98084 87.285 1.98084C92.1042 1.99357 94.4045 3.44404 94.9471 3.93258C96.7167 5.44909 97.6285 9.08364 96.9609 14.4257C96.3268 19.6054 92.5395 19.9332 91.8385 20.1568C91.5401 20.2522 88.784 20.9317 85.3117 20.7081C85.3117 20.7081 82.7259 23.8287 81.9175 24.6323C81.7894 24.7731 81.6398 24.8145 81.5443 24.7938C81.4075 24.7604 81.3661 24.5909 81.3741 24.3586L81.3987 20.0947C76.3344 18.6943 76.6328 13.4104 76.6869 10.6503C76.7489 7.89016 77.2669 5.63209 78.8089 4.10285C80.8847 2.2259 84.6148 1.97288 86.3509 1.96015H86.3525ZM86.7344 4.71948C86.6927 4.71906 86.6513 4.72689 86.6127 4.74253C86.5741 4.75816 86.5389 4.78129 86.5092 4.81058C86.4796 4.83987 86.456 4.87474 86.4399 4.91318C86.4238 4.95162 86.4154 4.99287 86.4153 5.03456C86.4153 5.21278 86.5601 5.35361 86.7344 5.35361C87.5233 5.33861 88.3073 5.47994 89.0413 5.76944C89.7753 6.05895 90.4448 6.49091 91.011 7.0404C92.1671 8.16307 92.7304 9.67163 92.7519 11.6441C92.7519 11.8183 92.8927 11.9631 93.071 11.9631V11.9504C93.155 11.9506 93.2356 11.9176 93.2954 11.8586C93.3552 11.7996 93.3892 11.7193 93.39 11.6353C93.4287 10.7069 93.2781 9.78033 92.9475 8.91191C92.6169 8.0435 92.1132 7.25138 91.4669 6.5837C90.2074 5.35282 88.6113 4.71948 86.7344 4.71948ZM82.5405 5.44909C82.3153 5.41619 82.0856 5.46139 81.8896 5.57719H81.8729C81.418 5.84385 81.0082 6.18087 80.6588 6.57574C80.3684 6.91151 80.2108 7.25125 80.1694 7.57826C80.1448 7.7732 80.1615 7.96813 80.2196 8.15432L80.2403 8.16705C80.5673 9.1282 80.9945 10.0527 81.5165 10.9232C82.1888 12.1461 83.0162 13.277 83.9782 14.288L84.0069 14.3294L84.0522 14.3628L84.0809 14.3962L84.1143 14.4249C85.1289 15.3897 86.2626 16.221 87.4879 16.8986C88.8882 17.6608 89.738 18.0212 90.248 18.1708V18.1788C90.3976 18.2241 90.5336 18.2448 90.6705 18.2448C91.1051 18.213 91.5166 18.0365 91.8393 17.7435C92.2324 17.394 92.5656 16.9825 92.8259 16.5254V16.5174C93.0702 16.0576 92.9874 15.6223 92.6349 15.3279C91.9291 14.7109 91.1657 14.1629 90.3554 13.6913C89.8128 13.3969 89.2614 13.5751 89.0378 13.8735L88.5612 14.4742C88.3169 14.7726 87.873 14.7312 87.873 14.7312L87.8602 14.7392C84.5495 13.8934 83.6663 10.5413 83.6663 10.5413C83.6663 10.5413 83.625 10.0854 83.9313 9.85304L84.528 9.37246C84.8137 9.14013 85.0126 8.58954 84.7063 8.04611C84.2379 7.23466 83.6911 6.47115 83.0736 5.76656C82.9386 5.60045 82.7492 5.48744 82.5389 5.4475L82.5405 5.44909ZM87.285 6.39433C86.8625 6.39433 86.8625 7.03245 87.2889 7.03245C87.8143 7.04097 88.3328 7.15294 88.8149 7.36195C89.297 7.57097 89.7331 7.87293 90.0984 8.25059C90.4316 8.61819 90.6877 9.04893 90.8514 9.51731C91.0152 9.98568 91.0832 10.4821 91.0516 10.9773C91.0531 11.0611 91.0873 11.141 91.1469 11.1999C91.2065 11.2588 91.2868 11.292 91.3707 11.2924L91.3834 11.3091C91.4678 11.3085 91.5486 11.2746 91.6083 11.2149C91.668 11.1552 91.7018 11.0745 91.7024 10.99C91.7311 9.72573 91.338 8.66513 90.567 7.81537C89.7921 6.96561 88.7108 6.48901 87.3303 6.39433H87.285ZM87.8077 8.10976C87.3725 8.09703 87.3558 8.74788 87.787 8.76061C88.8357 8.81471 89.3449 9.34462 89.4118 10.4347C89.4132 10.5174 89.447 10.5963 89.5059 10.6544C89.5648 10.7126 89.6441 10.7454 89.7268 10.7458H89.7396C89.7821 10.7439 89.8239 10.7337 89.8624 10.7155C89.9009 10.6974 89.9355 10.6718 89.964 10.6401C89.9925 10.6085 90.0144 10.5715 90.0285 10.5313C90.0425 10.4911 90.0485 10.4485 90.0459 10.406C89.9711 8.98498 89.1961 8.18455 87.8204 8.11056L87.8077 8.10976Z" fill="#2B2B2B"/>
<path d="M21.0331 3.73248C18.7557 1.41523 15.6074 0.157227 12.3921 0.157227C5.55978 0.157227 0.067027 5.65252 0.133958 12.3396C0.133958 14.4583 0.736817 16.5108 1.74165 18.3646L0 24.6544L6.49749 22.9992C8.30607 23.9924 10.3155 24.4558 12.3252 24.4558C19.0906 24.4558 24.5834 18.9604 24.5834 12.2735C24.5834 9.02921 23.3106 5.98358 21.0332 3.73248H21.0331ZM12.3921 22.4034C10.5835 22.4034 8.77497 21.94 7.23431 21.0131L6.83243 20.8144L2.94736 21.8075L3.9521 18.0337L3.68418 17.6364C0.736817 12.9356 2.14352 6.71186 6.96639 3.79864C11.7893 0.885509 18.0188 2.27592 20.9662 7.04293C23.9135 11.8099 22.5068 17.9674 17.684 20.8806C16.1432 21.8737 14.2677 22.4033 12.3921 22.4033V22.4034ZM18.2868 15.0543L17.5499 14.7233C17.5499 14.7233 16.4783 14.2598 15.8084 13.9287C15.7414 13.9287 15.6744 13.8625 15.6074 13.8625C15.4064 13.8625 15.2725 13.9287 15.1385 13.995C15.1385 13.995 15.0716 14.0611 14.1338 15.1205C14.0667 15.2529 13.9328 15.3191 13.7988 15.3191H13.7318C13.6649 15.3191 13.5309 15.2529 13.4639 15.1867L13.1289 15.0543C12.3921 14.7233 11.7223 14.3259 11.1864 13.7963C11.0524 13.6639 10.8515 13.5315 10.7175 13.3991C10.2486 12.9356 9.7797 12.4059 9.44485 11.81L9.37783 11.6776C9.31089 11.6114 9.31089 11.5452 9.24387 11.4128C9.24387 11.2804 9.24387 11.148 9.31089 11.0817C9.31089 11.0817 9.57881 10.7507 9.7797 10.5521C9.91375 10.4196 9.98069 10.2211 10.1146 10.0887C10.2486 9.89 10.3156 9.62518 10.2486 9.42653C10.1817 9.09546 9.37783 7.30783 9.17694 6.91061C9.04288 6.71196 8.90902 6.6458 8.70804 6.57955H7.97122C7.83717 6.57955 7.7033 6.6458 7.56925 6.6458L7.50222 6.71196C7.36826 6.77821 7.23431 6.91061 7.10035 6.97677C6.96639 7.10927 6.89936 7.24158 6.76541 7.37408C6.2965 7.96996 6.02859 8.69824 6.02859 9.42653C6.02859 9.95615 6.16255 10.4859 6.36353 10.9493L6.43056 11.148C7.03342 12.4059 7.83717 13.5315 8.90902 14.5246L9.17694 14.7894C9.37783 14.9881 9.57881 15.1205 9.71277 15.319C11.1195 16.5109 12.7271 17.3716 14.5356 17.835C14.7366 17.9012 15.0045 17.9012 15.2055 17.9674H15.8753C16.2103 17.9674 16.6121 17.835 16.8801 17.7026C17.081 17.5702 17.215 17.5702 17.3489 17.4378L17.483 17.3053C17.617 17.1729 17.7509 17.1068 17.8849 16.9744C18.0188 16.8419 18.1528 16.7095 18.2198 16.577C18.3538 16.3122 18.4207 15.9812 18.4877 15.6502V15.1867C18.4877 15.1867 18.4207 15.1205 18.2868 15.0543Z" fill="#2B2B2B"/>
<path d="M54.2438 7.69716C54.2438 7.69716 55.4518 7.22608 55.3508 8.37005C55.3175 8.84113 55.0156 10.4901 54.7805 12.2733L53.9751 17.5563C53.9751 17.5563 53.908 18.3302 53.3038 18.4649C52.7 18.5992 51.7939 17.9938 51.6259 17.8592C51.4916 17.7581 49.1092 16.2438 48.2702 15.5038C48.0352 15.3016 47.7665 14.898 48.3038 14.4269L51.8271 11.0619C52.2298 10.6583 52.6325 9.71613 50.9546 10.8601L46.2562 14.0566C46.2562 14.0566 45.7192 14.3934 44.7127 14.0905L42.5311 13.4173C42.5311 13.4173 41.7258 12.9126 43.1017 12.408C46.4577 10.8265 50.5855 9.21146 54.2432 7.69716H54.2438Z" fill="#2B2B2B"/>
<path d="M49.707 1.03519C56.2532 1.03519 61.5595 6.34154 61.5595 12.8877C61.5595 19.4338 56.2532 24.7402 49.707 24.7402C43.1609 24.7402 37.8545 19.4338 37.8545 12.8877C37.8545 6.34154 43.1609 1.03519 49.707 1.03519Z" stroke="#2B2B2B" stroke-width="1.75593"/>
</svg>
